<svg width="1440" height="633" viewBox="0 0 1440 633" fill="none" xmlns="http://www.w3.org/2000/svg">
<g clip-path="url(#clip0_2_41)">
<g clip-path="url(#clip1_2_41)">
<path d="M0 0H1440V633H0V0Z" fill="#162E3C"/>
</g>
<path fill-rule="evenodd" clip-rule="evenodd" d="M52.989 347.613C19.8985 347.878 -17.8138 358.375 -41.5903 333.137C-65.5057 307.753 -62.0808 265.696 -58.3538 229.428C-55.1125 197.885 -42.3657 169.744 -22.4345 146.723C-1.85427 122.953 23.2214 103.798 52.989 100.825C85.568 97.5716 121.875 103.261 143.528 130.15C164.507 156.203 156.087 194.676 156.548 229.428C157.02 265.058 168.713 305.937 146.197 331.633C123.548 357.482 85.6794 347.351 52.989 347.613Z" fill="#1F3847"/>
<path d="M34.2245 212.116C46.3472 194.325 34.813 177.458 16.2926 185.85C-0.292021 193.403 -12.3306 211.025 -15.5296 232.509C-18.0552 249.21 19.3229 233.852 34.2245 212.116ZM-0.881271 224.285C5.01171 210.522 13.5145 199.865 22.9431 194.41C27.9943 191.472 28.5838 191.808 27.6575 197.095C26.4794 203.222 11.2414 221.516 2.40201 227.139C-3.65944 230.999 -3.74357 230.999 -0.881271 224.285Z" fill="#DDF0A7"/>
<path d="M161.428 169.485C142.655 174.604 123.966 190.968 123.966 202.466C123.966 207.837 129.186 211.781 131.374 207.92C132.047 206.746 132.721 206.83 137.435 209.179C150.148 215.557 172.372 204.815 180.707 188.45C187.273 175.61 176.834 165.289 161.428 169.485ZM170.099 180.143C166.732 189.878 138.614 208.089 136.257 201.962C134.994 198.773 152.505 185.01 164.291 179.891C171.278 176.786 171.193 176.87 170.099 180.143Z" fill="#DDF0A7"/>
<path d="M18.3127 246.442C8.21085 250.049 -8.20535 268.344 -8.20535 276.065C-8.20535 276.652 -9.55232 279.924 -11.1519 283.281C-19.9072 301.493 0.213084 308.122 18.4816 293.101C46.6839 269.854 46.599 236.371 18.3127 246.442ZM28.4149 257.602C22.4385 277.324 -4.16455 294.023 -0.712899 290.835C-1.89149 291.254 -3.15443 290.248 -2.90182 288.989C-0.79724 278.667 13.4303 261.379 24.9636 255.253C29.2573 252.987 29.7619 253.322 28.4149 257.602Z" fill="#DDF0A7"/>
<path d="M165.469 217.237C143.665 224.034 116.726 250.134 123.124 258.191C132.131 269.604 163.785 257.434 181.632 235.615C192.577 222.187 183.316 211.614 165.469 217.237ZM174.14 227.81C169.426 236.538 133.478 259.868 129.69 257.434C127.165 255.84 129.101 252.735 132.216 253.238C135.331 253.826 135.499 253.657 140.55 248.035C146.948 240.901 157.64 231.502 166.142 226.802C173.719 222.691 175.403 225.545 174.14 227.81Z" fill="#DDF0A7"/>
<path d="M150.737 152.869C180.622 135.077 183.485 105.537 154.693 112.586C135.92 117.202 118.998 134.91 115.294 142.211C111.59 149.68 113.274 154.715 119.335 153.708C120.514 153.54 121.441 153.624 121.441 153.96C121.441 160.338 139.372 159.666 150.737 152.869ZM138.614 135.161C147.958 127.272 162.691 119.216 162.691 121.986C162.691 126.685 142.319 145.4 132.805 149.344C126.828 151.778 131.037 141.539 138.614 135.161Z" fill="#DDF0A7"/>
<path d="M51.1455 219.166C51.819 218.41 55.2703 212.117 55.6071 211.613C56.5334 214.55 58.9745 216.9 61.9212 217.739C71.6868 220.593 84.0622 213.291 97.8686 196.171C103.088 189.71 105.866 184.59 106.202 180.646C108.223 157.819 50.7248 175.359 48.3676 212.117C48.0309 217.572 49.6297 221.6 51.1455 219.166ZM70.2558 193.066C82.5464 180.73 97.363 172.506 95.7633 178.884C94.4163 184.423 87.008 192.647 79.3479 199.025C74.2118 203.389 64.783 210.27 62.7626 208.172C59.648 204.899 70.1709 193.15 70.2558 193.066Z" fill="#DDF0A7"/>
<path d="M61.5006 169.904C76.4851 169.904 102.077 145.903 102.077 131.888C102.077 122.908 89.7869 117.873 78.0848 121.985C46.599 133.064 33.8878 169.904 61.5006 169.904ZM61.5845 156.645C64.4463 146.742 72.0235 137.93 82.3785 132.307C88.5238 128.951 88.6917 128.951 87.5136 132.307C84.3141 141.874 59.0584 165.54 61.5845 156.645Z" fill="#DDF0A7"/>
<path d="M86.924 225.461C67.6458 232.174 43.5683 262.134 51.9869 268.764C53.166 269.686 54.0923 271.03 54.0923 271.785C54.0923 289.829 95.0059 271.701 105.614 249.042C113.443 232.594 103.172 219.754 86.924 225.461ZM95.7633 238.803C92.3958 249.126 70.5926 269.52 63.0154 269.771C57.8803 269.94 64.3624 260.792 65.6254 258.862C69.7502 252.4 84.0622 239.728 92.144 235.28C97.2791 232.426 97.6998 232.929 95.7633 238.803Z" fill="#DDF0A7"/>
<g clip-path="url(#clip2_2_41)">
<path fill-rule="evenodd" clip-rule="evenodd" d="M1416.35 260.265C1385.77 261.822 1362.6 284.312 1340.54 305.453C1317.85 327.193 1291.14 349.588 1290.45 380.926C1289.75 412.638 1313.91 438.074 1337.15 459.775C1359.45 480.605 1385.85 496.313 1416.35 498.515C1449.3 500.896 1485.13 495.913 1507.94 472.109C1530.42 448.648 1530.42 413.318 1529.01 380.926C1527.68 350.34 1521.27 319.741 1500.33 297.317C1478.66 274.105 1448.14 258.646 1416.35 260.265Z" fill="#1F3847"/>
<path d="M1347.11 330.477C1342.38 326.331 1338.88 319.359 1337.55 313.801C1335.75 305.887 1346.54 295.146 1355.34 314.084C1362.06 328.593 1369.25 330.383 1375.03 318.983C1380.8 307.488 1391.78 307.771 1388.28 319.265C1384.02 333.586 1358.66 340.464 1347.11 330.477Z" fill="#DDF0A7"/>
<path d="M1450.83 336.036C1435.41 347.53 1416.76 339.428 1414.11 320.019C1412.41 307.677 1426.6 307.771 1431.71 320.113C1438.15 335.659 1444.02 334.246 1447.24 316.345C1448.28 310.409 1454.62 307.206 1458.21 310.786C1463.04 315.591 1458.88 330.006 1450.83 336.036Z" fill="#DDF0A7"/>
<path d="M1409 374.758C1397.27 386.911 1372 379.092 1367.74 362.039C1365.37 352.712 1380.14 353.654 1387.42 363.263C1391.21 368.351 1394.05 370.706 1393.95 370.612C1395 371.554 1396.7 371.46 1397.55 370.33C1398.4 369.199 1400.2 365.713 1401.43 362.51C1404.17 355.632 1411.65 351.393 1415.06 354.785C1417.52 357.234 1413.73 369.858 1409 374.758Z" fill="#DDF0A7"/>
<path d="M1412.88 404.341C1408.43 395.579 1414.68 388.984 1423.2 393.601C1425.28 394.731 1427.83 397.652 1430.2 401.515C1438.62 415.176 1440.52 415.554 1445.72 404.531C1448.47 398.689 1449.79 397.464 1453.67 397.464C1461.43 397.464 1457.74 412.916 1448.56 418.663C1435.22 427.142 1421.78 421.771 1412.88 404.341Z" fill="#DDF0A7"/>
<path d="M1390.55 450.224C1396.42 449.659 1397.84 450.318 1403.61 456.348C1411.08 464.168 1417.61 459.268 1418.84 444.854C1419.22 440.143 1422.82 439.389 1425.94 443.252C1437.87 458.326 1410.99 479.053 1394.05 467.841C1385.44 462.094 1383.17 450.883 1390.55 450.224Z" fill="#DDF0A7"/>
<path d="M1283.23 301.647C1284.74 303.343 1287.49 307.206 1289.29 310.409C1296.95 324.164 1299.22 324.07 1307.74 309.938C1315.31 297.313 1324.02 299.103 1319.38 312.199C1313.32 329.346 1289.38 335.752 1278.31 323.221C1262.88 305.792 1275.09 292.697 1283.23 301.647Z" fill="#DDF0A7"/>
<path d="M1312.85 353.277C1314.74 354.973 1317.68 358.27 1319.29 360.625C1327.8 373.156 1330.83 372.779 1337.08 358.647C1340.96 349.791 1352.31 346.776 1349.95 360.154C1345.5 384.65 1304.33 384.462 1299.89 357.234C1298.75 350.356 1306.7 347.812 1312.85 353.277Z" fill="#DDF0A7"/>
<path d="M1346.07 396.144C1347.58 396.898 1352.13 400.761 1356.01 404.53C1368.4 416.589 1373.8 416.589 1378.72 404.059C1380.99 398.311 1381.84 397.558 1385.53 397.558C1393.1 397.558 1391.12 411.69 1382.79 417.154C1365.75 428.272 1335.09 416.966 1335.09 399.536C1335.19 395.768 1341.53 393.789 1346.07 396.144Z" fill="#DDF0A7"/>
</g>
<path fill-rule="evenodd" clip-rule="evenodd" d="M155.127 791.808C185.784 790.973 219.754 793.167 241.21 771.322C262.548 749.596 260.304 715.894 259.541 685.498C258.803 656.168 255.789 626.45 237.003 603.868C216.44 579.148 187.263 557.766 155.127 559.982C124.084 562.122 106.204 592.852 83.8429 614.427C60.8314 636.629 28.886 653.803 25.0384 685.498C20.9165 719.451 37.6804 754.46 64.211 776.141C88.9374 796.348 123.168 792.678 155.127 791.808Z" fill="#1F3847"/>
<path d="M53.1769 569.629C33.2387 569.139 31.7049 589.324 47.9627 638.562C53.1769 654.404 48.7598 663.823 37.2264 661.377C29.6804 659.786 22.7479 647.737 16.2448 624.861C10.662 605.105 4.64972 599.6 -5.10488 605.105C-15.2276 610.854 -16.0865 622.415 -8.11102 647.065C-6.88402 650.796 -5.35048 655.627 -4.67563 657.829C5.44726 690.063 34.1589 713.307 65.0788 714.346C80.1099 714.835 64.2817 717.955 49.4351 715.631C21.7049 711.227 -5.47298 685.171 -14.8595 653.793C-27.0681 612.873 -23.3871 600.151 0.723339 600.09C14.1589 600.028 15.57 601.618 24.8338 627.674C35.8154 658.502 43.8518 668.105 42.4412 648.654C42.0731 644.006 27.1037 605.533 27.1037 589.813C27.1037 572.014 41.0297 560.76 57.1033 565.592C63.8518 567.671 61.705 569.873 53.1769 569.629Z" fill="#DDF0A7"/>
<path d="M129.864 688.29C115.938 704.315 87.4719 718.629 77.4106 714.652C73.2388 713.001 73.9131 711.043 78.6984 711.043C88.0236 711.043 105.815 701.685 116.306 691.287C144.833 662.968 146.306 611.405 119.68 577.764C114.404 571.097 101.092 566.02 96.9806 581.312C94.1585 591.954 96.9198 600.762 102.073 612.934C111.153 634.22 110.232 643.762 98.9438 643.762C90.3548 643.762 87.5328 639.848 77.4106 613.791C69.2506 592.811 63.2383 578.376 61.5823 575.868C57.7787 570.18 64.588 570.301 68.8825 576.051C71.521 579.598 78.1467 593.484 80.0481 599.417C84.2199 612.323 87.9627 626.88 94.8947 636.055C98.453 640.826 101.275 641.009 100.416 634.403C99.8645 630.366 97.7168 624.434 93.545 615.075C80.6616 586.388 84.4653 568.039 103.606 566.815C118.392 565.898 128.269 572.565 136.429 590.853C153.852 629.999 148.882 666.392 129.864 688.29Z" fill="#DDF0A7"/>
</g>
<defs>
<clipPath id="clip0_2_41">
<rect width="1440" height="633" fill="white"/>
</clipPath>
<clipPath id="clip1_2_41">
<rect width="1440" height="633" fill="white"/>
</clipPath>
<clipPath id="clip2_2_41">
<rect width="170" height="240" fill="white" transform="translate(1270 260)"/>
</clipPath>
</defs>
</svg>
