<svg width="1440" height="856" viewBox="0 0 1440 856" fill="none" xmlns="http://www.w3.org/2000/svg">
<path d="M1290.16 142.044C1298.36 147.862 1305.93 146.317 1315.21 136.771C1322.69 129.135 1328.19 128.589 1335.13 134.771C1346.3 144.68 1354.59 146.316 1362.16 140.044C1370.81 132.862 1372.34 131.952 1376.04 131.952C1380.27 131.952 1382.62 133.134 1385.59 136.68C1393.52 146.134 1401.99 146.498 1412.17 137.589C1422.36 128.68 1435.33 131.316 1426.41 140.498C1415.06 152.135 1397.13 155.226 1382.62 147.953L1376.13 144.68L1370.45 147.589C1360 153.043 1339.54 151.498 1329.9 144.68L1327.47 142.953L1323.14 146.043C1309.27 155.952 1273.04 153.225 1273.04 142.316C1273.04 137.771 1283.85 137.589 1290.16 142.044Z" fill="#E2E8EB"/>
<path d="M1314.31 172.227C1320.89 167.136 1324.77 164.771 1337.74 172.771C1349.91 180.226 1353.87 180.044 1366.49 171.407C1373.88 166.317 1376.76 166.407 1387.75 171.953C1400.46 178.407 1410.19 178.407 1414.16 171.953C1417.31 166.862 1430.74 166.499 1430.74 171.589C1430.74 181.953 1400.82 187.953 1384.69 180.771L1376.85 177.317L1372.52 180.044C1360.99 187.135 1343.96 187.407 1330.71 180.589L1326.03 178.136L1318.91 181.407C1301.7 189.317 1281.69 189.136 1274.21 180.863C1270.43 176.59 1280.34 174.953 1288.45 178.407C1295.57 181.498 1305.3 179.227 1314.31 172.227Z" fill="#E2E8EB"/>
<path d="M1391.54 202.681C1407.58 210.045 1413.17 209.862 1422 202.044C1433.8 191.498 1446.15 195.226 1435.15 205.953C1423.53 217.407 1402.89 218.953 1384.78 209.68L1380.36 207.407L1374.69 210.589C1363.24 216.953 1348.01 218.226 1335.67 213.862L1330.62 212.044L1325.94 215.044C1313.05 223.316 1292.87 224.135 1281.87 216.862C1272.32 210.498 1281.33 206.407 1292.51 211.953C1298.27 214.862 1302.51 215.317 1307.46 213.59C1310.26 212.59 1312.24 211.407 1321.07 204.862C1325.31 201.771 1332.88 202.044 1339.81 205.498C1350.45 210.953 1359.46 209.589 1370 200.953C1374.87 197.135 1380.27 197.499 1391.54 202.681Z" fill="#E2E8EB"/>
</svg>
