<svg width="1280" height="898" viewBox="0 0 1280 898" fill="none" xmlns="http://www.w3.org/2000/svg">
<path d="M0 48C0 21.4903 21.4903 0 48 0H1232C1258.51 0 1280 21.4903 1280 48V850C1280 876.51 1258.51 898 1232 898H48C21.4904 898 0 876.51 0 850V48Z" fill="#DDF0A7"/>
<g clip-path="url(#clip0_18508_3)">
<path d="M1144.99 2.00854C1149.35 -1.36348 1173.7 -17.8557 1178.12 -20.3694C1181.87 -22.454 1182.73 -23.2504 1183.53 -25.3349C1185.69 -31.0369 1189.01 -49.6754 1190.3 -63.4087C1190.97 -70.2141 1186.67 -73.8923 1181.32 -71.0107C1180.15 -70.3976 1176.83 -68.7423 1173.94 -67.3322C1171.05 -65.9833 1162.69 -60.7107 1155.32 -55.6833C1138.78 -44.3411 1139.27 -49.9815 1136.44 -21.6563C1135.83 -15.0962 1130.97 12.8603 1144.99 2.00854ZM1147.51 -36.3098C1147.51 -38.2717 1149.6 -39.9881 1162.88 -48.9393C1169.46 -53.4149 1175.85 -57.8296 1177.02 -58.8105C1179.91 -61.1403 1180.03 -61.0787 1179.42 -57.3388C1176.16 -37.5358 1173.94 -32.5695 1171.79 -26.745C1158.14 -19.8171 1142.78 -8.29146 1142.22 -8.598C1141.98 -8.96586 1147.51 -31.2211 1147.51 -36.3098Z" fill="#162E3C"/>
<path d="M1139.39 66.9363C1144.01 66.9363 1173.88 40.2661 1176.71 38.2434C1182.55 34.0744 1189.8 1.08935 1185.32 -0.995179C1183.47 -1.85351 1183.84 -1.91482 1179.42 -0.81125C1177.51 -0.320774 1169.58 3.23518 1161.77 7.15899C1144.01 16.0489 1145.85 13.0447 1143.76 18.3173C1138.29 32.0507 1134.78 59.0877 1133.37 61.3556C1131.96 63.3793 1135.83 66.9363 1139.39 66.9363ZM1144.68 46.7041C1147.08 39.1626 1149.6 28.6173 1151.38 21.3828C1173.82 11.2667 1177.63 8.38459 1177.63 9.67209C1177.63 11.2048 1175.23 14.4548 1172.41 33.9517C1167.12 37.2007 1156.05 43.6985 1149.11 48.9103C1141.79 54.3663 1142.22 54.5517 1144.68 46.7041Z" fill="#162E3C"/>
<path d="M1120.64 25.7967C1115.54 17.1521 1106.75 26.2875 1105.52 27.2076C1091.81 37.5076 1086.16 44.0673 1078.9 50.3826C1075.15 53.6933 1077.24 52.7732 1071.59 72.7601C1065.32 94.9542 1068.82 99.6755 1086.65 86.2482C1097.71 77.9101 1098.33 78.0327 1110.5 69.3268C1115.73 65.6482 1115.17 61.9078 1118 51.8531C1121.38 39.8982 1122.49 28.8625 1120.64 25.7967ZM1104.78 61.541C1104.11 65.7708 1098.21 65.403 1087.02 73.3732C1078.9 79.1981 1082.78 76.99 1084.8 61.1721L1085.54 55.41C1106.44 38.7946 1111.24 32.8481 1111.24 35.0552C1111.24 35.0552 1105.28 58.4755 1104.78 61.541Z" fill="#162E3C"/>
<path d="M1237.02 -46.6098C1227.61 -40.8467 1203.21 -22.5763 1200.93 -20.6144C1199.03 -19.0203 1197.18 -17.6715 1196.87 -17.6715C1194.6 -17.6715 1196.32 -9.02689 1194.6 5.44216C1191.96 27.8816 1193.37 32.9698 1215.81 19.6653C1219.87 17.2742 1225.95 14.332 1229.46 13.0445C1240.09 9.12073 1239.35 9.85644 1239.78 3.7868C1239.97 0.905252 1241.08 -4.98046 1242.12 -9.39475C1244.64 -19.5721 1246.61 -30.9148 1247.22 -37.9654C1248.14 -47.9588 1243.1 -50.3497 1237.02 -46.6098ZM1236.03 -28.5846C1234.19 -19.0203 1229.4 0.352778 1229.15 2.49861C1228.84 5.0123 1219.74 7.09682 1207.88 13.8409C1201.73 17.3355 1202.22 17.888 1203.51 8.99811C1204.8 0.353466 1205.6 -8.16856 1206.16 -13.993C1206.16 -13.993 1229.33 -30.24 1232.04 -32.2632C1238 -36.7388 1237.63 -36.984 1236.03 -28.5846Z" fill="#162E3C"/>
<path d="M1213.9 29.1685C1200.13 37.8745 1191.53 43.6376 1190.79 43.6376C1188.58 43.6376 1181.57 75.3959 1182.3 81.9565C1182.55 83.9792 1183.1 89.6197 1183.1 89.9876C1183.78 95.0768 1197.86 88.3317 1217.9 73.1888C1223.49 68.9579 1224.23 68.5901 1226.57 68.7137C1230.32 68.8971 1231.36 66.8744 1232.71 57.1257C1237.2 23.9572 1232.71 17.2745 1213.9 29.1685ZM1221.65 63.0114C1221.59 63.0722 1217.71 65.0959 1212.98 67.6101C1195.77 76.6221 1190.79 81.4042 1191.34 79.0745C1191.65 77.8483 1194.23 59.7007 1195.15 52.4662C1195.4 50.6887 1195.83 49.7685 1196.81 49.2781C1197.55 48.9102 1223.99 33.4602 1223.99 33.4602C1224.05 33.522 1222.82 63.0114 1221.65 63.0114Z" fill="#162E3C"/>
<path d="M1167.8 57.7997C1165.34 59.333 1152.67 68.4068 1145.36 73.9246C1134.54 82.0783 1133 84.409 1129.44 98.2032C1128.27 102.74 1126.61 108.688 1125.75 111.385C1118.37 134.744 1126.48 135.785 1131.71 132.291C1135.4 129.777 1157.35 111.508 1162.14 106.971C1165.71 103.538 1166.94 102.74 1168.1 102.985C1171.85 103.721 1173.14 100.533 1175.48 84.4699C1177.39 71.2878 1179.17 50.7496 1167.8 57.7997ZM1168.04 70.1852C1167.43 74.2925 1164.11 93.9733 1164.11 95.8734C1164.11 96.9162 1133.8 117.945 1134.29 116.106C1138.84 98.2032 1138.1 86.5544 1140.13 86.5544C1141.18 86.5544 1143.76 84.8377 1158.82 74.109C1169.46 66.5067 1168.53 66.8745 1168.04 70.1852Z" fill="#162E3C"/>
<path d="M1083.94 29.9661C1086.28 28.7399 1092.61 22.9153 1101.1 16.11C1122.43 -1.118 1123.35 -2.3436 1126.55 -18.2841C1130.05 -35.9415 1131.59 -57.2775 1117.57 -45.9353C1113.51 -42.6245 1090.34 -25.0287 1086.96 -22.699C1082.22 -19.3882 1077.06 17.8266 1075.21 25.9195C1074.54 29.046 1080.38 31.7446 1083.94 29.9661ZM1092.98 -14.9121C1115.54 -31.8951 1118.62 -34.3475 1118.62 -33.3052C1118.62 -32.5695 1114.44 -13.8698 1114.07 -10.1912C1113.7 -6.14479 1100.97 2.62188 1085.91 15.313C1083.94 16.907 1086.16 14.3326 1092.98 -14.9121Z" fill="#162E3C"/>
</g>
<defs>
<clipPath id="clip0_18508_3">
<rect width="180" height="136" fill="white" transform="translate(1068 -2)"/>
</clipPath>
</defs>
</svg>
