<svg width="1280" height="484" viewBox="0 0 1280 484" fill="none" xmlns="http://www.w3.org/2000/svg">
<g clip-path="url(#clip0_2_603)">
<path d="M0 48C0 21.4903 21.4903 0 48 0H1232C1258.51 0 1280 21.4903 1280 48V436C1280 462.51 1258.51 484 1232 484H48C21.4904 484 0 462.51 0 436V48Z" fill="#DDF0A7"/>
<g clip-path="url(#clip1_2_603)">
<path d="M1120.98 75.3559C1101.02 75.8462 1099.48 55.6179 1115.76 6.27293C1120.98 -9.60327 1116.55 -19.0432 1105.01 -16.5913C1097.45 -14.9975 1090.51 -2.92237 1084 20.0031C1078.41 39.802 1072.4 45.3198 1062.63 39.803C1052.5 34.041 1051.64 22.455 1059.62 -2.24809C1060.85 -5.98727 1062.39 -10.8292 1063.06 -13.036C1073.19 -45.3401 1101.94 -68.6337 1132.89 -69.6758C1147.94 -70.1662 1132.09 -73.2921 1117.23 -70.9628C1089.47 -66.5494 1062.26 -40.4368 1052.87 -8.99088C1040.64 32.0176 1044.33 44.7676 1068.47 44.8284C1081.92 44.8902 1083.33 43.2975 1092.6 17.184C1103.6 -13.7102 1111.64 -23.334 1110.23 -3.84125C1109.86 0.817405 1094.87 39.3744 1094.87 55.1275C1094.87 72.9657 1108.82 84.2446 1124.91 79.4015C1131.66 77.3174 1129.51 75.1107 1120.98 75.3559Z" fill="#162E3C"/>
<path d="M1197.75 -43.5625C1183.81 -59.6228 1155.31 -73.967 1145.24 -69.9826C1141.06 -68.3275 1141.73 -66.3657 1146.52 -66.3657C1155.86 -66.3657 1173.67 -56.9873 1184.17 -46.5667C1212.73 -18.1857 1214.21 33.4886 1187.55 67.2026C1182.27 73.8836 1168.94 78.9718 1164.83 63.6473C1162 52.9814 1164.77 44.1545 1169.93 31.9557C1179.01 10.6244 1178.09 1.06192 1166.79 1.06192C1158.19 1.06192 1155.37 4.985 1145.24 31.0975C1137.07 52.1232 1131.05 66.5896 1129.39 69.1023C1125.58 74.8035 1132.4 74.6819 1136.7 68.9199C1139.34 65.3646 1145.97 51.4484 1147.88 45.503C1152.05 32.5686 1155.8 17.9802 1162.74 8.78547C1166.3 4.00422 1169.13 3.82033 1168.27 10.4405C1167.71 14.4862 1165.56 20.4321 1161.39 29.8107C1148.49 58.559 1152.3 76.9485 1171.46 78.1744C1186.26 79.0944 1196.15 72.4124 1204.32 54.0848C1221.76 14.854 1216.79 -21.6178 1197.75 -43.5625Z" fill="#162E3C"/>
</g>
</g>
<defs>
<clipPath id="clip0_2_603">
<rect width="1280" height="484" fill="white"/>
</clipPath>
<clipPath id="clip1_2_603">
<rect width="170" height="153" fill="white" transform="translate(1046 -72)"/>
</clipPath>
</defs>
</svg>
